<svg xmlns="http://www.w3.org/2000/svg" viewBox="0 0 131.65 32"><defs><style>.cls-1,.cls-2{fill:#3055d4;}.cls-2{opacity:0.5;}</style></defs><g id="图层_2" data-name="图层 2"><g id="图层_1-2" data-name="图层 1"><path class="cls-1" d="M29.57,31.48H32a.76.76,0,0,0,.76-.76V11.84a2.27,2.27,0,0,0-2.27-2.27H28.06a.76.76,0,0,0-.76.75V29.21A2.27,2.27,0,0,0,29.57,31.48Z"/><path class="cls-1" d="M30,0a3.14,3.14,0,1,0,3.14,3.14A3.15,3.15,0,0,0,30,0Z"/><path class="cls-1" d="M48.47,16.61H47.21a2.25,2.25,0,0,0-1.67.73l-6.87,7.43A5.3,5.3,0,0,0,37,28.36a2.7,2.7,0,0,0,1.26,2.37,4.16,4.16,0,0,0,2.45.75H54.4a.76.76,0,0,0,.76-.76V27.47a.76.76,0,0,0-.76-.76H43.81l6.91-7.47a1.49,1.49,0,0,0-.55-2.41A5.4,5.4,0,0,0,48.47,16.61Z"/><path class="cls-1" d="M48.31,14.34h.16c2,0,3.75.51,4.73,2.22l.66-.71A4.07,4.07,0,0,0,55,13c0-1.56-.84-3.42-4.85-3.42h-10A2.26,2.26,0,0,0,38,11.84v1.74a.76.76,0,0,0,.75.76h9.61Z"/><path class="cls-1" d="M70.21,14.34h3.53a.75.75,0,0,0,.75-.76V10.32a.75.75,0,0,0-.75-.75H69.6a12.81,12.81,0,0,0-8.35,2.76A10,10,0,0,0,58,17C60.77,14.87,65.13,14.34,70.21,14.34Z"/><path class="cls-1" d="M58.75,19.28a4.09,4.09,0,0,0-1,3.88,9.88,9.88,0,0,0,3.66,5.47,12.77,12.77,0,0,0,8.23,2.85h2.62a2.27,2.27,0,0,0,2.27-2.27V27.46a.75.75,0,0,0-.74-.76c-1.44,0-4.48-.07-4.76-.12a6.84,6.84,0,0,1-4.12-1.95,5.5,5.5,0,0,1-1.76-3.93A5.65,5.65,0,0,1,64.37,17C61.74,17.37,59.93,18.11,58.75,19.28Z"/><path class="cls-1" d="M102.94,16.7a7.37,7.37,0,0,1,.08,1.1V29.21a2.27,2.27,0,0,0,2.27,2.27h2.43a.76.76,0,0,0,.76-.76V23.34a9.08,9.08,0,0,0-2-4.35A7.75,7.75,0,0,0,102.94,16.7Z"/><path class="cls-1" d="M99.38,13.91c4.24,0,7.23,1.6,9.1,3.95V16.63a6.71,6.71,0,0,0-3-5.62,9.9,9.9,0,0,0-5.84-1.88c-3.1,0-5.49.9-7.12,2.67a8.86,8.86,0,0,0-6.43-2.67,11.19,11.19,0,0,0-6.18,1.74,6.61,6.61,0,0,0-3.2,5.76V30.72a.76.76,0,0,0,.76.76h3.91a.76.76,0,0,0,.75-.76V18.32c0-3,1.22-4.41,3.84-4.41s3.8,1.31,3.8,4.15V30.72a.76.76,0,0,0,.76.76h4a.76.76,0,0,0,.76-.76V17.8C95.34,15.14,96.63,13.91,99.38,13.91Z"/><path class="cls-1" d="M122.65,23.36c2.26.65,3.46,1.42,3.46,2.23,0,.39,0,1.29-2.25,1.29-1.33,0-3.34,0-6,0l-4.37,0a2.27,2.27,0,0,0-2.28,2.27v1.65a.76.76,0,0,0,.75.76h11.52a11.62,11.62,0,0,0,4.94-.92h0a5.36,5.36,0,0,0,3.25-5.05c0-2.57-1.4-4.53-4.15-5.83a52,52,0,0,0-7.25-2.16,11.51,11.51,0,0,1-2.37-.82c-2,.16-3.6.8-4.25,1.71a1.7,1.7,0,0,0-.31,1.17.91.91,0,0,0,.39.72,9.71,9.71,0,0,0,1.67.92C115.84,21.44,117.63,22,122.65,23.36Z"/><path class="cls-1" d="M118.88,14.38h10.83a.76.76,0,0,0,.76-.76V10.37a.76.76,0,0,0-.76-.76h-9.93c-5.71,0-8.6,2.07-8.6,6.15a5.1,5.1,0,0,0,.31,1.81C112.56,15.51,115.43,14.38,118.88,14.38Z"/><path class="cls-1" d="M11.38,24.08c-.9-2.31-2-5.17-2-5.21L6.31,11A2.26,2.26,0,0,0,4.19,9.57H.76a.75.75,0,0,0-.71,1L6.74,28.08c1,2.6,2.57,3.92,4.73,3.92s3.55-1.13,4.37-3.36l.09-.25C13.26,28.11,12.07,25.84,11.38,24.08Z"/><path class="cls-2" d="M16.25,11l-3.37,9a2.26,2.26,0,0,0,0,1.62c.2.53.41,1.06.61,1.57C14.16,25,14.83,25.7,15.57,26a2.2,2.2,0,0,0,.6.12.76.76,0,0,0,.78-.5l5.5-15a.75.75,0,0,0-.71-1H18.38A2.28,2.28,0,0,0,16.25,11Z"/></g></g></svg>